<svg width="25" height="26" viewBox="0 0 25 26" fill="none" xmlns="http://www.w3.org/2000/svg">
<path fill-rule="evenodd" clip-rule="evenodd" d="M0.0134403 12.9603C-0.00598769 12.7791 -0.00280765 12.5913 0.0321074 12.414C0.0875566 12.1325 0.223138 11.8776 0.426475 11.6438C0.629812 11.41 0.900836 11.1976 4.25883 9.32237C7.61683 7.44719 14.0617 3.90923 17.4197 2.08717C18.6339 1.42825 19.4151 0.946614 19.9996 0.705258C22.0043 -0.122827 24.0062 0.4369 23.9904 2.74555C23.9868 3.27195 23.9939 4.4686 23.9939 6.05539C23.9939 7.93229 23.9979 10.7793 24.0013 13.5138C24.0039 15.5933 24.0062 17.6076 24.0062 19.0807C24.0062 21.5765 23.9997 22.519 23.984 23.0012C23.9228 24.8977 22.6437 25.9055 20.3576 25.1862C19.9284 25.0512 19.3578 24.6573 18.3747 24.1167C16.095 22.863 11.7943 20.4619 8.59037 18.677C5.38648 16.8921 3.27928 15.7235 2.09009 15.0434C0.900905 14.3635 0.629881 14.1723 0.43892 13.9651C0.24789 13.758 0.136922 13.5348 0.0692357 13.2692C0.0441383 13.1709 0.0249866 13.0667 0.0135787 12.9602L0.0134403 12.9603Z" fill="black"/>
</svg>
