<svg width="25" height="26" viewBox="0 0 25 26" fill="none" xmlns="http://www.w3.org/2000/svg">
<path fill-rule="evenodd" clip-rule="evenodd" d="M24.1887 12.9603C24.2081 12.7791 24.2049 12.5913 24.17 12.414C24.1146 12.1325 23.979 11.8776 23.7756 11.6438C23.5723 11.41 23.3013 11.1976 19.9433 9.32237C16.5853 7.44719 10.1404 3.90923 6.78248 2.08717C5.5682 1.42825 4.787 0.946614 4.20258 0.705258C2.19783 -0.122827 0.195923 0.4369 0.211756 2.74555C0.215351 3.27195 0.20823 4.4686 0.20823 6.05539C0.20823 7.93229 0.204289 10.7793 0.200832 13.5138C0.198204 15.5933 0.195923 17.6076 0.195923 19.0807C0.195923 21.5765 0.202491 22.519 0.218116 23.0012C0.279304 24.8977 1.55844 25.9055 3.84458 25.1862C4.27372 25.0512 4.84439 24.6573 5.8274 24.1167C8.10711 22.863 12.4078 20.4619 15.6118 18.677C18.8156 16.8921 20.9229 15.7235 22.112 15.0434C23.3012 14.3635 23.5722 14.1723 23.7632 13.9651C23.9542 13.758 24.0652 13.5348 24.1329 13.2692C24.158 13.1709 24.1771 13.0667 24.1885 12.9602L24.1887 12.9603Z" fill="black"/>
</svg>
