<svg width="27" height="27" viewBox="0 0 27 27" fill="none" xmlns="http://www.w3.org/2000/svg">
<path d="M25.3125 18.5625H18.2725L15.8862 20.9487C15.2508 21.5842 14.4018 21.9375 13.5 21.9375C12.5982 21.9375 11.7513 21.5865 11.1138 20.9487L8.72754 18.5625H1.6875C0.755684 18.5625 0 19.3182 0 20.25V25.3125C0 26.2443 0.755684 27 1.6875 27H25.3125C26.2443 27 27 26.2443 27 25.3125V20.25C27 19.3166 26.2459 18.5625 25.3125 18.5625ZM22.7812 24.0469C22.0852 24.0469 21.5156 23.4773 21.5156 22.7812C21.5156 22.0852 22.0852 21.5156 22.7812 21.5156C23.4773 21.5156 24.0469 22.0852 24.0469 22.7812C24.0469 23.4773 23.4773 24.0469 22.7812 24.0469ZM12.3082 19.7543C12.6352 20.0865 13.0676 20.25 13.5 20.25C13.9324 20.25 14.3638 20.0852 14.6929 19.7556L21.4429 13.0056C22.1015 12.3464 22.1015 11.2786 21.4429 10.6194C20.7837 9.96021 19.7153 9.96021 19.0566 10.6194L15.1875 14.4914V1.6875C15.1875 0.755684 14.4318 0 13.5 0C12.5666 0 11.8125 0.755684 11.8125 1.6875V14.4914L7.9418 10.6207C7.28314 9.96152 6.21475 9.96152 5.55557 10.6207C4.89691 11.2799 4.89691 12.3478 5.55557 13.0069L12.3082 19.7543Z" fill="#E4E4E4"/>
</svg>
