<svg width="59" height="67" viewBox="0 0 59 67" fill="none" xmlns="http://www.w3.org/2000/svg">
<g clip-path="url(#clip0_386_187)">
<path d="M52.2326 4.15967H6.47566C3.0309 4.15967 0.236084 6.95448 0.236084 10.3992V56.1562C0.236084 59.6009 3.0309 62.3957 6.47566 62.3957H52.2326C55.6774 62.3957 58.4722 59.6009 58.4722 56.1562V10.3992C58.4722 6.95448 55.6774 4.15967 52.2326 4.15967ZM36.2827 54.0373C35.1907 54.2323 34.7878 53.5563 34.7878 52.9974C34.7878 52.2954 34.8138 48.7077 34.8138 45.8089C34.8138 43.781 34.1378 42.4941 33.3449 41.8181C38.1545 41.2852 43.2242 40.6222 43.2242 32.3158C43.2242 29.9499 42.3792 28.767 41.0013 27.2461C41.2223 26.6871 41.9633 24.3863 40.7804 21.3965C38.9735 20.8375 34.8398 23.7233 34.8398 23.7233C33.1239 23.2424 31.265 22.9954 29.4321 22.9954C27.5992 22.9954 25.7404 23.2424 24.0245 23.7233C24.0245 23.7233 19.8908 20.8375 18.0839 21.3965C16.901 24.3733 17.6289 26.6741 17.8629 27.2461C16.485 28.767 15.835 29.9499 15.835 32.3158C15.835 40.5832 20.6837 41.2852 25.4934 41.8181C24.8694 42.3771 24.3105 43.339 24.1155 44.7169C22.8806 45.2759 19.7218 46.2378 17.8369 42.91C16.654 40.8562 14.5221 40.6872 14.5221 40.6872C12.4163 40.6612 14.3791 42.0131 14.3791 42.0131C15.783 42.6631 16.771 45.1589 16.771 45.1589C18.0319 49.0196 24.0635 47.7197 24.0635 47.7197C24.0635 49.5266 24.0895 52.4644 24.0895 52.9974C24.0895 53.5563 23.6995 54.2323 22.5946 54.0373C14.0152 51.1645 8.00956 43.001 8.00956 33.4597C8.00956 21.5265 17.1349 12.4661 29.0681 12.4661C41.0013 12.4661 50.6727 21.5265 50.6727 33.4597C50.6857 43.001 44.8621 51.1775 36.2827 54.0373ZM23.5305 46.0948C23.2835 46.1468 23.0495 46.0428 23.0236 45.8738C22.9976 45.6789 23.1665 45.5099 23.4135 45.4579C23.6605 45.4319 23.8945 45.5359 23.9205 45.7049C23.9595 45.8739 23.7905 46.0428 23.5305 46.0948ZM22.2956 45.9778C22.2956 46.1468 22.1006 46.2898 21.8406 46.2898C21.5546 46.3158 21.3597 46.1728 21.3597 45.9778C21.3597 45.8089 21.5546 45.6659 21.8146 45.6659C22.0616 45.6399 22.2956 45.7829 22.2956 45.9778ZM20.5147 45.8349C20.4627 46.0038 20.2027 46.0818 19.9818 46.0038C19.7348 45.9518 19.5658 45.7569 19.6178 45.5879C19.6698 45.4189 19.9298 45.3409 20.1507 45.3929C20.4107 45.4709 20.5797 45.6659 20.5147 45.8349ZM18.9158 45.1329C18.7988 45.2759 18.5518 45.2499 18.3569 45.0549C18.1619 44.8859 18.1099 44.6389 18.2399 44.5219C18.3569 44.379 18.6038 44.4049 18.7988 44.5999C18.9678 44.7689 19.0328 45.0289 18.9158 45.1329ZM17.7329 43.95C17.6159 44.028 17.3949 43.95 17.2519 43.755C17.1089 43.56 17.1089 43.339 17.2519 43.248C17.3949 43.131 17.6159 43.222 17.7329 43.417C17.8759 43.612 17.8759 43.846 17.7329 43.95ZM16.888 42.6891C16.771 42.8061 16.576 42.7411 16.433 42.6111C16.29 42.4421 16.264 42.2471 16.381 42.1561C16.498 42.0391 16.693 42.1041 16.836 42.2341C16.979 42.4031 17.005 42.5981 16.888 42.6891ZM16.017 41.7271C15.965 41.8441 15.796 41.8701 15.653 41.7791C15.4841 41.7011 15.4061 41.5581 15.4581 41.4411C15.5101 41.3632 15.653 41.3242 15.822 41.3892C15.991 41.4801 16.069 41.6231 16.017 41.7271Z" fill="#3547A9"/>
</g>
<defs>
<clipPath id="clip0_386_187">
<rect width="58.2361" height="66.5555" fill="white" transform="translate(0.236084)"/>
</clipPath>
</defs>
</svg>
