<svg width="59" height="67" viewBox="0 0 59 67" fill="none" xmlns="http://www.w3.org/2000/svg">
<g clip-path="url(#clip0_393_194)">
<path d="M54.0764 4.15967H4.14672C1.85887 4.15967 0 6.04454 0 8.35838V58.197C0 60.5109 1.85887 62.3957 4.14672 62.3957H54.0764C56.3642 62.3957 58.2361 60.5109 58.2361 58.197V8.35838C58.2361 6.04454 56.3642 4.15967 54.0764 4.15967ZM17.6008 54.0763H8.9694V26.2842H17.6138V54.0763H17.6008ZM13.2851 22.4884C10.5163 22.4884 8.28044 20.2396 8.28044 17.4838C8.28044 14.728 10.5163 12.4791 13.2851 12.4791C16.0409 12.4791 18.2898 14.728 18.2898 17.4838C18.2898 20.2526 16.0539 22.4884 13.2851 22.4884ZM49.9556 54.0763H41.3242V40.5572C41.3242 37.3334 41.2592 33.1867 36.8395 33.1867C32.3418 33.1867 31.6529 36.6965 31.6529 40.3232V54.0763H23.0215V26.2842H31.3019V30.0799H31.4189C32.5758 27.8961 35.3966 25.5952 39.5953 25.5952C48.3307 25.5952 49.9556 31.3538 49.9556 38.8413V54.0763Z" fill="#3547A9"/>
</g>
<defs>
<clipPath id="clip0_393_194">
<rect width="58.2361" height="66.5555" fill="white"/>
</clipPath>
</defs>
</svg>
