<svg width="56" height="64" viewBox="0 0 56 64" fill="none" xmlns="http://www.w3.org/2000/svg">
<path fill-rule="evenodd" clip-rule="evenodd" d="M55.9288 30.7349C56.0102 31.1863 56.0177 31.6646 55.9723 32.1258L55.972 32.1257C55.9454 32.3968 55.9007 32.6621 55.8422 32.9125C55.6843 33.5887 55.4254 34.157 54.9797 34.6845C54.5343 35.2121 53.902 35.6988 51.1278 37.4302C48.9158 38.8109 45.3422 40.9825 40.1959 44.1098C38.8878 44.9047 37.4781 45.7614 35.9634 46.6825C34.5574 47.5374 33.0609 48.4479 31.5223 49.384C24.8812 53.4243 17.4555 57.9419 13.1376 60.5336C12.342 61.0112 11.6622 61.4438 11.0717 61.8196C9.96034 62.5268 9.16573 63.0324 8.51193 63.2569C3.17864 65.0885 0.194568 62.5225 0.0518242 57.6932C0.0312722 57.001 0.0174368 55.9362 0.00927734 54H4.9482C6.60505 54 7.9482 52.6569 7.9482 51V43.5C7.9482 41.8431 9.29134 40.5 10.9482 40.5H23.5941C25.251 40.5 26.5941 39.1569 26.5941 37.5V35.1194C26.5941 33.4625 25.251 32.1194 23.5941 32.1194H10.9482C9.29134 32.1194 7.9482 30.7763 7.9482 29.1194V27C7.9482 25.3431 9.29134 24 10.9482 24H26C27.6569 24 29 22.6569 29 21V19C29 17.3431 27.6569 16 26 16H0.0285098C0.0286731 15.493 0.0287594 15.0068 0.0287594 14.5437C0.0287594 12.6498 0.0324093 10.9742 0.0354239 9.59029C0.0388407 8.02171 0.0414412 6.82789 0.0369853 6.11577C4.93603e-05 0.23719 4.67027 -1.18806 9.3471 0.920519C10.2532 1.32897 11.3621 2.00767 12.8356 2.90953C13.5792 3.36465 14.4156 3.87659 15.3657 4.43932C23.1994 9.07888 38.2345 18.0877 46.0683 22.8625C53.9022 27.6375 54.5344 28.1784 55.0088 28.7736C55.4831 29.3688 55.7994 30.018 55.9288 30.7349Z" fill="#4558BF"/>
</svg>
