<svg width="35" height="35" viewBox="0 0 35 35" fill="none" xmlns="http://www.w3.org/2000/svg">
<path d="M31.7188 4.375C33.5303 4.375 35 5.84404 35 7.65625C35 8.68848 34.5146 9.65918 33.6875 10.2812L18.8125 21.4375C18.0332 22.0186 16.9668 22.0186 16.1875 21.4375L1.3125 10.2812C0.48624 9.65918 0 8.68848 0 7.65625C0 5.84404 1.46904 4.375 3.28125 4.375H31.7188ZM14.875 23.1875C16.4336 24.3564 18.5664 24.3564 20.125 23.1875L35 12.0312V26.25C35 28.6631 33.0381 30.625 30.625 30.625H4.375C1.9585 30.625 0 28.6631 0 26.25V12.0312L14.875 23.1875Z" fill="#3F51B5"/>
</svg>
