<svg width="24" height="22" viewBox="0 0 24 22" fill="none" xmlns="http://www.w3.org/2000/svg">
<path fill-rule="evenodd" clip-rule="evenodd" d="M23.9881 11.1141C24.0075 10.9598 24.0044 10.7998 23.9695 10.6488C23.914 10.4089 23.7785 10.1917 23.5752 9.99255C23.3719 9.79344 23.1009 9.61245 19.7436 8.01488C16.3862 6.41736 9.94256 3.40326 6.58529 1.85099C5.37124 1.28964 4.59019 0.879321 4.00588 0.673703C2.00152 -0.0317685 0 0.44508 0.0158297 2.41189C0.0194242 2.86035 0.0123043 3.87981 0.0123043 5.23164C0.0123043 6.83063 0.00836416 9.25611 0.00490789 11.5857C0.00228113 13.3573 0 15.0733 0 16.3283C0 18.4546 0.0065669 19.2575 0.0221892 19.6683C0.0833651 21.284 1.36225 22.1425 3.64795 21.5297C4.07701 21.4147 4.64757 21.0791 5.63039 20.6186C7.90966 19.5506 12.2095 17.505 15.4129 15.9844C18.6161 14.4638 20.7229 13.4682 21.9119 12.8888C23.1008 12.3096 23.3718 12.1467 23.5627 11.9702C23.7537 11.7937 23.8647 11.6036 23.9323 11.3773C23.9574 11.2936 23.9766 11.2048 23.988 11.1141L23.9881 11.1141Z" fill="#ABAAAA"/>
</svg>
