<svg width="59" height="67" viewBox="0 0 59 67" fill="none" xmlns="http://www.w3.org/2000/svg">
<g clip-path="url(#clip0_386_190)">
<path d="M29.5902 15.9629C20.1398 15.9629 12.4574 23.6454 12.4444 33.0957C12.4444 36.3325 13.3543 39.4913 15.0702 42.2081L15.4732 42.8581L13.7443 49.1756L20.2308 47.4727L20.8548 47.8497C23.4806 49.4096 26.4964 50.2416 29.5772 50.2416H29.5902C39.0276 50.2416 46.918 42.5591 46.918 33.1087C46.918 28.533 44.9422 24.2303 41.7054 20.9935C38.4556 17.7438 34.1659 15.9629 29.5902 15.9629ZM39.6645 40.4532C39.2356 41.6621 37.1817 42.7541 36.1938 42.8971C34.5559 43.144 33.282 43.014 30.0192 41.6101C24.8585 39.3743 21.4788 34.1746 21.2188 33.8367C20.9588 33.4987 19.1129 31.0419 19.1129 28.507C19.1129 25.9722 20.4388 24.7243 20.9198 24.2043C21.3878 23.6843 21.9467 23.5544 22.2977 23.5544C22.6357 23.5544 22.9867 23.5544 23.2856 23.5674C23.5976 23.5804 24.0266 23.4504 24.4426 24.4513C24.8715 25.4782 25.8985 28.0131 26.0284 28.273C26.1584 28.533 26.2494 28.832 26.0674 29.17C25.0795 31.1458 24.0266 31.0679 24.5595 31.9778C26.5484 35.3966 28.5373 36.5795 31.5661 38.1004C32.086 38.3604 32.385 38.3214 32.684 37.9704C32.983 37.6324 33.9709 36.4625 34.3089 35.9555C34.6469 35.4356 34.9978 35.5266 35.4658 35.6955C35.9338 35.8645 38.4686 37.1124 38.9886 37.3724C39.5085 37.6324 39.8465 37.7624 39.9765 37.9704C40.0935 38.2174 40.0935 39.2573 39.6645 40.4532ZM52.4687 4.15967H6.71175C3.26698 4.15967 0.472168 6.95448 0.472168 10.3992V56.1562C0.472168 59.6009 3.26698 62.3957 6.71175 62.3957H52.4687C55.9134 62.3957 58.7082 59.6009 58.7082 56.1562V10.3992C58.7082 6.95448 55.9134 4.15967 52.4687 4.15967ZM29.5772 53.7123C26.1194 53.7123 22.7267 52.8414 19.7239 51.2035L8.79161 54.0763L11.7164 43.391C9.90953 40.2712 8.9606 36.7225 8.9606 33.0827C8.9736 21.7215 18.216 12.4791 29.5772 12.4791C35.0888 12.4791 40.2625 14.624 44.1622 18.5237C48.049 22.4234 50.3888 27.5971 50.3888 33.1087C50.3888 44.4699 40.9384 53.7123 29.5772 53.7123Z" fill="#3547A9"/>
</g>
<defs>
<clipPath id="clip0_386_190">
<rect width="58.2361" height="66.5555" fill="white" transform="translate(0.472168)"/>
</clipPath>
</defs>
</svg>
